<?xml version="1.0" encoding="UTF-8" standalone="no"?>
<svg
   xmlns:dc="http://purl.org/dc/elements/1.1/"
   xmlns:cc="http://creativecommons.org/ns#"
   xmlns:rdf="http://www.w3.org/1999/02/22-rdf-syntax-ns#"
   xmlns:svg="http://www.w3.org/2000/svg"
   xmlns="http://www.w3.org/2000/svg"
   xmlns:sodipodi="http://sodipodi.sourceforge.net/DTD/sodipodi-0.dtd"
   xmlns:inkscape="http://www.inkscape.org/namespaces/inkscape"
   width="800"
   height="800"
   viewBox="0 0 211.66666 211.66667"
   version="1.1"
   id="svg855"
   inkscape:version="1.0 (4035a4fb49, 2020-05-01)"
   sodipodi:docname="caverna-sheep.svg">
  <defs
     id="defs849">
    <inkscape:path-effect
       fuse_tolerance="0"
       hide_knot="false"
       vertical_pattern="false"
       prop_units="false"
       tang_offset="0"
       normal_offset="0"
       spacing="0"
       scale_y_rel="false"
       prop_scale="1"
       copytype="single_stretched"
       pattern="M 0,5 C 0,2.24 2.24,0 5,0 7.76,0 10,2.24 10,5 10,7.76 7.76,10 5,10 2.24,10 0,7.76 0,5 Z"
       lpeversion="1"
       is_visible="true"
       id="path-effect854"
       effect="skeletal" />
    <inkscape:path-effect
       effect="powerstroke"
       id="path-effect1495"
       is_visible="true"
       lpeversion="1"
       offset_points="0,0.1322915"
       sort_points="true"
       interpolator_type="CubicBezierJohan"
       interpolator_beta="0.2"
       start_linecap_type="zerowidth"
       linejoin_type="extrp_arc"
       miter_limit="4"
       scale_width="1"
       end_linecap_type="zerowidth" />
    <inkscape:path-effect
       effect="skeletal"
       id="path-effect1491"
       is_visible="true"
       lpeversion="1"
       pattern="M 0,5 C 0,2.24 2.24,0 5,0 7.76,0 10,2.24 10,5 10,7.76 7.76,10 5,10 2.24,10 0,7.76 0,5 Z"
       copytype="single_stretched"
       prop_scale="0.44767626"
       scale_y_rel="false"
       spacing="0"
       normal_offset="0"
       tang_offset="0"
       prop_units="false"
       vertical_pattern="false"
       hide_knot="false"
       fuse_tolerance="0" />
    <inkscape:path-effect
       effect="skeletal"
       id="path-effect1487"
       is_visible="true"
       lpeversion="1"
       pattern="M 0,5 C 0,2.24 2.24,0 5,0 7.76,0 10,2.24 10,5 10,7.76 7.76,10 5,10 2.24,10 0,7.76 0,5 Z"
       copytype="single_stretched"
       prop_scale="-2e-07"
       scale_y_rel="false"
       spacing="0"
       normal_offset="0"
       tang_offset="0"
       prop_units="false"
       vertical_pattern="false"
       hide_knot="false"
       fuse_tolerance="0" />
    <inkscape:path-effect
       effect="skeletal"
       id="path-effect1463"
       is_visible="true"
       lpeversion="1"
       pattern="M 0,5 C 0,2.24 2.24,0 5,0 7.76,0 10,2.24 10,5 10,7.76 7.76,10 5,10 2.24,10 0,7.76 0,5 Z"
       copytype="single_stretched"
       prop_scale="-2e-07"
       scale_y_rel="false"
       spacing="0"
       normal_offset="0"
       tang_offset="0"
       prop_units="false"
       vertical_pattern="false"
       hide_knot="false"
       fuse_tolerance="0" />
    <inkscape:path-effect
       effect="skeletal"
       id="path-effect1441"
       is_visible="true"
       lpeversion="1"
       pattern="M 0,5 C 0,2.24 2.24,0 5,0 7.76,0 10,2.24 10,5 10,7.76 7.76,10 5,10 2.24,10 0,7.76 0,5 Z"
       copytype="single_stretched"
       prop_scale="1"
       scale_y_rel="false"
       spacing="0"
       normal_offset="0"
       tang_offset="0"
       prop_units="false"
       vertical_pattern="false"
       hide_knot="false"
       fuse_tolerance="0" />
    <clipPath
       id="clipPath2428"
       clipPathUnits="userSpaceOnUse">
      <rect
         style="fill:#c1a5a5;fill-opacity:1;stroke:none;stroke-width:1.11945;stroke-miterlimit:4;stroke-dasharray:none"
         id="rect2430"
         width="139.67525"
         height="131.00575"
         x="-320.11032"
         y="-75.025658" />
    </clipPath>
  </defs>
  <sodipodi:namedview
     inkscape:snap-bbox="false"
     inkscape:snap-nodes="true"
     inkscape:object-paths="true"
     inkscape:snap-global="true"
     id="base"
     pagecolor="#ffffff"
     bordercolor="#666666"
     borderopacity="1.0"
     inkscape:pageopacity="0.0"
     inkscape:pageshadow="2"
     inkscape:zoom="0.77688376"
     inkscape:cx="408.68938"
     inkscape:cy="374.59304"
     inkscape:document-units="px"
     inkscape:current-layer="layer1"
     inkscape:document-rotation="0"
     showgrid="false"
     inkscape:window-width="1920"
     inkscape:window-height="1017"
     inkscape:window-x="-8"
     inkscape:window-y="-8"
     inkscape:window-maximized="1"
     units="px"
     showguides="false" />
  <metadata
     id="metadata852">
    <rdf:RDF>
      <cc:Work
         rdf:about="">
        <dc:format>image/svg+xml</dc:format>
        <dc:type
           rdf:resource="http://purl.org/dc/dcmitype/StillImage" />
        <dc:title />
      </cc:Work>
    </rdf:RDF>
  </metadata>
  <g
     inkscape:label="Layer 1"
     inkscape:groupmode="layer"
     id="layer1">
    <g
       transform="matrix(1.0008399,0,0,1.0008423,-0.08868777,0.16766716)"
       style="stroke-width:2.37925;stroke-miterlimit:4;stroke-dasharray:none"
       id="g1506">
      <g
         style="stroke-width:2.37925;stroke-miterlimit:4;stroke-dasharray:none"
         id="g1498">
        <path
           sodipodi:nodetypes="ccccccssccssscccccccccccccccc"
           id="path2434-4"
           style="fill:#ded0c7;fill-opacity:1;stroke:none;stroke-width:8.99244;stroke-linecap:butt;stroke-linejoin:miter;stroke-miterlimit:4;stroke-dasharray:none;stroke-opacity:1"
           d="m 586.15039,153.16405 50.21291,39.38958 68.97654,-16.35636 -147.08398,-74.59766 -0.0371,0.0371 c -0.2555,-0.10957 -0.46035,-0.29279 -0.70508,-0.40234 -5.8927,-2.759885 -12.38362,-4.317848 -19.30664,-4.408208 l -10e-6,1e-5 C 526.66867,96.67558 521.21905,95.774136 500.75,109.835 L 440.78906,79.431631 c -5.05834,-1.78404 -10.31463,-2.734005 -16.00195,-2.748047 v 1e-5 c -14.53426,-0.03589 -31.88832,6.038027 -55.97852,19.90625 -0.003,0.0018 -0.0138,-0.01084 -0.0176,-0.0078 -0.004,0.0029 -1.2e-4,0.0088 -0.006,0.01563 C 301.66237,68.622398 283.17011,76.022992 241.29688,146.33789 h -0.002 c -0.003,0.008 -0.004,0.008 -0.008,0.0195 C 173.69237,121.18674 158.92934,131.5711 138.68555,214.75 l -0.002,-0.002 c -0.002,0.008 -0.008,0.008 -0.008,0.0195 C 84.833009,245.47983 -51.931008,435.51592 30.728516,478.19336 l -0.03711,0.0371 145.916014,74.01562 108.36719,-263.29492 102.60937,-68.41015 127.4961,-49.75782 z"
           transform="scale(0.26458333)" />
        <path
           id="path2434-4-8"
           style="fill:#ded0c7;fill-opacity:1;stroke:none;stroke-width:2.37925;stroke-linecap:butt;stroke-linejoin:miter;stroke-miterlimit:4;stroke-dasharray:none;stroke-opacity:1"
           d="m 72.891194,132.51553 -4.93745,38.66713 38.709666,19.63483 13.16023,-43.22414 z"
           sodipodi:nodetypes="ccccc" />
        <path
           style="fill:#e5dcd1;fill-opacity:1;stroke:none;stroke-width:2.37925;stroke-linecap:butt;stroke-linejoin:miter;stroke-miterlimit:4;stroke-dasharray:none;stroke-opacity:1"
           d="m 191.54281,137.85556 -9.18534,24.16389 -38.52907,-19.5432 z"
           id="path2434-2"
           sodipodi:nodetypes="cccc" />
        <path
           sodipodi:nodetypes="cccccccccccccccc"
           id="path2434"
           d="m 75.399594,76.45185 c 5.35684,-22.01257 9.26516,-24.76081 27.151026,-18.10059 11.08098,-18.60839 15.97196,-20.56646 33.73298,-13.164 16.74155,-9.63845 21.22164,-5.15981 32.08752,5.75922 13.20874,-12.06306 25.5304,-3.07399 26.51934,9.19984 20.23811,2.97078 15.64573,19.2825 12.15023,31.11529 6.13493,15.12575 3.61503,25.49155 -5.75932,32.08733 l 0.82235,32.91042 -19.74615,5.75913 -3.29103,-18.92331 -31.26479,5.75923 -13.164,37.02408 -27.97492,4.93591 4.93774,-38.66889 -23.037166,-9.87306 C -0.5910449,171.55876 56.574644,87.1896 75.399204,76.45185 Z"
           style="fill:#b5a496;fill-opacity:1;stroke:none;stroke-width:2.37925;stroke-linecap:butt;stroke-linejoin:miter;stroke-miterlimit:4;stroke-dasharray:none;stroke-opacity:1" />
      </g>
      <path
         id="path2434-4-0"
         style="display:inline;fill:none;fill-opacity:1;stroke:#000000;stroke-width:8.99244;stroke-linecap:butt;stroke-linejoin:miter;stroke-miterlimit:4;stroke-dasharray:none;stroke-opacity:1"
         d="m 424.78711,76.683594 c -14.53426,-0.03589 -31.8883,6.038027 -55.97852,19.90625 L 515.08,170.783 368.78299,96.597674 C 301.6608,68.622398 283.17012,76.022989 241.29688,146.33789 L 387.588,220.539 241.28688,146.35739 C 173.69266,121.1869 158.92693,131.57281 138.68336,214.74997 L 284.97273,288.95218 138.67648,214.76697 C 84.834565,245.47923 -51.931009,435.51592 30.728516,478.19336 l -0.03711,0.0371 155.132034,78.85472 c 9.21602,4.8391 38.71059,7.09938 82.68446,-1.53069 l -11.67578,91.43554 146.30669,74.20214 105.72857,-18.6592 49.7539,-139.93359 23.84766,-4.39258 106.75686,54.14839 74.63186,-21.76958 -3.10937,-124.38477 C 796.1789,441.27191 805.703,402.09363 782.51586,344.92545 795.7272,300.20309 813.08449,238.55204 736.59399,227.32389 734.77783,204.7834 722.84847,185.17738 714.09432,180.68708 l -155.83812,-79.08795 -0.0371,0.0371 c -0.2555,-0.10957 -0.46035,-0.29279 -0.70508,-0.40234 -15.71384,-7.359686 -35.67912,-6.174411 -56.76367,8.60156 l 85.4033,43.32511 -145.36428,-73.729569 c -5.05834,-1.78404 -10.31463,-2.734005 -16.00195,-2.748047 z"
         transform="scale(0.26458333)"
         sodipodi:nodetypes="ccccccccccccccccccccccccccccccccc" />
    </g>
  </g>
</svg>
